<mxfile host="65bd71144e">
    <diagram id="gaCARlr09ylDibmwLVlk" name="Page-1">
        <mxGraphModel dx="5950" dy="3550" grid="0" gridSize="10" guides="1" tooltips="1" connect="1" arrows="1" fold="1" page="1" pageScale="1" pageWidth="1100" pageHeight="850" background="none" math="0" shadow="0">
            <root>
                <mxCell id="0"/>
                <mxCell id="1" parent="0"/>
                <mxCell id="3" value="&lt;ol&gt;&lt;li&gt;Find All The Numbers Disappeard In An Array&lt;/li&gt;&lt;li&gt;How Many Numbers Are Smaller Than The Current Number&lt;/li&gt;&lt;li&gt;Minimum Time Visiting All Points&lt;/li&gt;&lt;li&gt;Spiral Matrix&lt;/li&gt;&lt;li&gt;Number Of Islands&lt;/li&gt;&lt;/ol&gt;" style="text;strokeColor=none;fillColor=none;html=1;whiteSpace=wrap;verticalAlign=top;overflow=hidden;rounded=1;sketch=1;hachureGap=4;jiggle=2;curveFitting=1;fontFamily=Architects Daughter;fontSource=https%3A%2F%2Ffonts.googleapis.com%2Fcss%3Ffamily%3DArchitects%2BDaughter;fontSize=20;" vertex="1" parent="1">
                    <mxGeometry x="-4390" y="-2499" width="614" height="202" as="geometry"/>
                </mxCell>
                <mxCell id="4" value="Problems For Nov/1 20204" style="text;strokeColor=none;fillColor=none;html=1;fontSize=24;fontStyle=1;verticalAlign=middle;align=center;rounded=1;sketch=1;hachureGap=4;jiggle=2;curveFitting=1;fontFamily=Architects Daughter;fontSource=https%3A%2F%2Ffonts.googleapis.com%2Fcss%3Ffamily%3DArchitects%2BDaughter;" vertex="1" parent="1">
                    <mxGeometry x="-4390" y="-2540" width="322" height="41" as="geometry"/>
                </mxCell>
            </root>
        </mxGraphModel>
    </diagram>
</mxfile>